<?xml version="1.0" encoding="UTF-8"?>
<svg width="1319px" height="562px" viewBox="0 0 1319 562" version="1.1" xmlns="http://www.w3.org/2000/svg" xmlns:xlink="http://www.w3.org/1999/xlink">
    <!-- Generator: Sketch 52.2 (67145) - http://www.bohemiancoding.com/sketch -->
    <title>Artboard</title>
    <desc>Created with Sketch.</desc>
    <g id="Artboard" stroke="none" stroke-width="1" fill="none" fill-rule="evenodd">
        <g id="logo" transform="translate(68.000000, 29.000000)">
            <g id="Group">
                <g transform="translate(141.509434, 143.396226)" fill="#000000" fill-rule="nonzero" id="Oval">
                    <circle cx="16.7924528" cy="15.0943396" r="15.0943396"></circle>
                    <circle cx="47.5471698" cy="45.6603774" r="15.0943396"></circle>
                    <circle cx="16.7924528" cy="76.4150943" r="13.7735849"></circle>
                    <circle cx="78.1132075" cy="76.2264151" r="15.0943396"></circle>
                    <circle cx="16.7924528" cy="137.54717" r="13.7735849"></circle>
                    <circle cx="200.377358" cy="15.2830189" r="15.0943396"></circle>
                    <circle cx="169.811321" cy="45.8490566" r="15.0943396"></circle>
                    <circle cx="139.245283" cy="76.2264151" r="15.0943396"></circle>
                    <circle cx="108.679245" cy="106.792453" r="15.0943396"></circle>
                    <circle cx="16.6037736" cy="198.867925" r="15.0943396"></circle>
                    <circle cx="200.377358" cy="76.4150943" r="13.7735849"></circle>
                    <circle cx="200.377358" cy="137.54717" r="13.7735849"></circle>
                    <circle cx="200.566038" cy="198.679245" r="15.0943396"></circle>
                </g>
                <g opacity="0.5" fill="#888888" fill-rule="nonzero" id="Oval">
                    <circle cx="250" cy="5.66037736" r="4.71698113"></circle>
                    <circle cx="494.716981" cy="250.377358" r="4.71698113"></circle>
                    <circle cx="5.28301887" cy="250.377358" r="4.71698113"></circle>
                    <circle cx="35.8490566" cy="219.622642" r="7.35849057"></circle>
                    <circle cx="66.6037736" cy="189.056604" r="10"></circle>
                    <circle cx="97.1698113" cy="158.490566" r="12.4528302"></circle>
                    <circle cx="127.735849" cy="127.924528" r="15.0943396"></circle>
                    <circle cx="280.566038" cy="36.2264151" r="7.35849057"></circle>
                    <circle cx="250" cy="66.7924528" r="9.24528302"></circle>
                    <circle cx="219.433962" cy="97.3584906" r="11.3207547"></circle>
                    <circle cx="188.867925" cy="127.924528" r="13.2075472"></circle>
                    <circle cx="127.735849" cy="189.056604" r="13.2075472"></circle>
                    <circle cx="96.9811321" cy="219.811321" r="11.3207547"></circle>
                    <circle cx="66.2264151" cy="250.566038" r="9.24528302"></circle>
                    <circle cx="35.6603774" cy="281.132075" r="7.35849057"></circle>
                    <circle cx="311.132075" cy="66.7924528" r="10"></circle>
                    <circle cx="280.566038" cy="97.3584906" r="11.3207547"></circle>
                    <circle cx="250.188679" cy="127.924528" r="12.4528302"></circle>
                    <circle cx="219.622642" cy="158.490566" r="13.7735849"></circle>
                    <circle cx="127.54717" cy="250.377358" r="12.4528302"></circle>
                    <circle cx="96.9811321" cy="281.132075" r="11.3207547"></circle>
                    <circle cx="66.2264151" cy="311.698113" r="10"></circle>
                    <circle cx="341.886792" cy="97.3584906" r="12.4528302"></circle>
                    <circle cx="311.320755" cy="127.924528" r="13.2075472"></circle>
                    <circle cx="280.754717" cy="158.490566" r="13.7735849"></circle>
                    <circle cx="250.188679" cy="189.056604" r="14.5283019"></circle>
                    <circle cx="188.867925" cy="250.377358" r="14.5283019"></circle>
                    <circle cx="127.54717" cy="311.698113" r="13.2075472"></circle>
                    <circle cx="96.7924528" cy="342.45283" r="12.4528302"></circle>
                    <circle cx="372.45283" cy="128.113208" r="15.0943396"></circle>
                    <circle cx="219.433962" cy="280.943396" r="15.0943396"></circle>
                    <circle cx="188.867925" cy="311.698113" r="15.0943396"></circle>
                    <circle cx="127.54717" cy="373.018868" r="15.0943396"></circle>
                    <circle cx="403.018868" cy="158.679245" r="12.4528302"></circle>
                    <circle cx="372.45283" cy="189.245283" r="13.2075472"></circle>
                    <circle cx="311.320755" cy="250.377358" r="14.5283019"></circle>
                    <circle cx="280.754717" cy="280.943396" r="15.0943396"></circle>
                    <circle cx="250.188679" cy="311.509434" r="14.5283019"></circle>
                    <circle cx="219.433962" cy="342.264151" r="13.7735849"></circle>
                    <circle cx="188.679245" cy="372.830189" r="13.2075472"></circle>
                    <circle cx="158.113208" cy="403.584906" r="12.4528302"></circle>
                    <circle cx="433.584906" cy="189.245283" r="10"></circle>
                    <circle cx="403.018868" cy="219.811321" r="11.3207547"></circle>
                    <circle cx="372.45283" cy="250.377358" r="12.4528302"></circle>
                    <circle cx="311.320755" cy="311.509434" r="15.0943396"></circle>
                    <circle cx="280.754717" cy="342.075472" r="13.7735849"></circle>
                    <circle cx="250" cy="372.830189" r="12.4528302"></circle>
                    <circle cx="219.245283" cy="403.396226" r="11.3207547"></circle>
                    <circle cx="188.679245" cy="434.150943" r="10"></circle>
                    <circle cx="464.150943" cy="219.811321" r="7.35849057"></circle>
                    <circle cx="433.584906" cy="250.377358" r="9.24528302"></circle>
                    <circle cx="403.018868" cy="280.943396" r="11.3207547"></circle>
                    <circle cx="372.45283" cy="311.509434" r="13.2075472"></circle>
                    <circle cx="311.320755" cy="372.641509" r="13.2075472"></circle>
                    <circle cx="280.566038" cy="403.396226" r="11.3207547"></circle>
                    <circle cx="249.811321" cy="433.962264" r="9.24528302"></circle>
                    <circle cx="219.245283" cy="464.716981" r="7.35849057"></circle>
                    <circle cx="372.641509" cy="372.641509" r="15.0943396"></circle>
                    <circle cx="158.301887" cy="97.3584906" r="12.4528302"></circle>
                    <circle cx="188.867925" cy="66.7924528" r="10"></circle>
                    <circle cx="219.433962" cy="36.2264151" r="7.35849057"></circle>
                    <circle cx="250.188679" cy="495.09434" r="4.71698113"></circle>
                    <circle cx="280.754717" cy="464.528302" r="7.35849057"></circle>
                    <circle cx="311.320755" cy="433.962264" r="10"></circle>
                    <circle cx="342.075472" cy="403.207547" r="12.4528302"></circle>
                    <circle cx="403.207547" cy="342.075472" r="12.4528302"></circle>
                    <circle cx="433.773585" cy="311.509434" r="10"></circle>
                    <circle cx="464.339623" cy="280.943396" r="7.35849057"></circle>
                </g>
            </g>
        </g>
        <g id="Group" transform="translate(646.000000, 80.000000)" fill="#000000" font-size="144" font-weight="normal">
            <text id="无界社区" font-family=".PingFangSC-Regular, .PingFang SC" letter-spacing="4.5">
                <tspan x="0" y="310">无界社区</tspan>
            </text>
            <text id="MIXLAB" font-family=".SFNSDisplay, .SF NS Display" letter-spacing="18">
                <tspan x="0" y="139">MIXLA</tspan>
                <tspan x="499.78125" y="139">B</tspan>
            </text>
        </g>
    </g>
</svg>